<?xml version="1.0" encoding="UTF-8"?>
<svg version="1.1" xmlns="http://www.w3.org/2000/svg" width="469" height="469">
<path d="M0 0 C9.01348696 8.3295955 17.3367605 16.90786015 24.9375 26.5625 C25.71738281 27.51382813 26.49726563 28.46515625 27.30078125 29.4453125 C38.54239555 43.46595426 47.39011767 59.28791465 54.9375 75.5625 C55.46859375 76.7071875 55.9996875 77.851875 56.546875 79.03125 C81.63127202 135.40649278 82.01685315 200.6433099 60.17456055 258.05126953 C38.25898798 313.80778187 -4.2764187 360.65385416 -59.0625 385.5625 C-59.7834082 385.8920166 -60.50431641 386.2215332 -61.24707031 386.56103516 C-117.08094241 411.77672124 -182.26869747 414.94915498 -239.92871094 393.49609375 C-279.6119287 378.25815136 -317.17251714 352.70600088 -343.0625 318.5625 C-343.54009766 317.93956055 -344.01769531 317.31662109 -344.50976562 316.67480469 C-370.75410144 282.24341268 -387.35043333 241.68338913 -392.0625 198.5625 C-392.17335938 197.62019531 -392.28421875 196.67789062 -392.3984375 195.70703125 C-398.38838466 134.43149074 -379.52817247 72.46706954 -340.76953125 24.79296875 C-336.39945314 19.52654501 -331.79689837 14.50163769 -327.0625 9.5625 C-326.55992676 9.03269531 -326.05735352 8.50289063 -325.53955078 7.95703125 C-318.14337286 0.19438642 -310.40184797 -6.74681763 -301.79785156 -13.14648438 C-300.66728336 -13.98757113 -299.54135704 -14.83494514 -298.42089844 -15.68945312 C-265.43332962 -40.84372011 -225.19581131 -55.94262735 -184.0625 -60.4375 C-183.12019531 -60.54835937 -182.17789063 -60.65921875 -181.20703125 -60.7734375 C-114.93516847 -67.25179661 -49.02502845 -44.66914613 0 0 Z " fill="#622CAF" transform="translate(393.0625,61.4375)"/>
<path d="M0 0 C2.17990312 1.81570212 4.10600973 3.59975526 6.07543945 5.62133789 C6.66138382 6.20669815 7.24732819 6.79205841 7.85102844 7.39515686 C9.78141457 9.32832507 11.69725395 11.27526431 13.61328125 13.22265625 C14.95047528 14.56731218 16.2885564 15.91108647 17.62748718 17.25401306 C21.14625532 20.78804133 24.65284537 24.33391731 28.15704346 27.88238525 C31.73609706 31.50238287 35.32652476 35.11105985 38.91601562 38.72070312 C45.95519619 45.80276133 52.98156477 52.8973865 60 60 C64.09620634 58.37641304 66.83447899 55.43319604 69.87011719 52.35693359 C70.44616196 51.78118088 71.02220673 51.20542816 71.6157074 50.61222839 C73.51421037 48.71233463 75.40553522 46.80546009 77.296875 44.8984375 C78.61351582 43.57806566 79.93059957 42.25813536 81.24810791 40.93862915 C84.71145037 37.46765724 88.16874418 33.9907207 91.62481689 30.51251221 C95.1537998 26.96305615 98.6884642 23.41926799 102.22265625 19.875 C109.15401308 12.92220537 116.07899377 5.96309691 123 -1 C124.72859714 -0.5439072 126.45608242 -0.08359944 128.18310547 0.37841797 C129.14521942 0.6342868 130.10733337 0.89015564 131.09860229 1.15377808 C135.59427202 2.46498552 139.84057669 4.24805744 144.125 6.125 C145.48069092 6.71486694 145.48069092 6.71486694 146.86376953 7.31665039 C199.29401779 30.47096172 240.19338283 72.89476734 262 126 C270.7633192 148.82399314 277 172.42082904 277 197 C249.61 197 222.22 197 194 197 C193.13375 185.4603125 193.13375 185.4603125 192.25 173.6875 C190.83569248 155.65203228 189.22316035 137.81576838 186 120 C185.81856445 118.95730957 185.63712891 117.91461914 185.45019531 116.84033203 C181.61118074 94.8998021 176.48121401 73.19696992 169.77758789 51.94970703 C168.80791308 48.85992963 168 46.26020327 168 43 C163.43737466 44.25241217 160.7728178 45.72956216 157.44412231 49.07485962 C156.58604477 49.92743851 155.72796722 50.7800174 154.84388733 51.65843201 C153.92103439 52.59566605 152.99818146 53.53290009 152.04736328 54.49853516 C151.05227669 55.49475082 150.05630691 56.49008497 149.05952454 57.48460388 C146.36292017 60.18006253 143.67881058 62.88765864 140.99679804 65.59762621 C138.18927758 68.43018389 135.37039436 71.25138738 132.55270386 74.07382202 C127.22182284 79.41712596 121.90121873 84.77054256 116.58424366 90.12768018 C110.5292594 96.22740331 104.46288737 102.31574657 98.39553857 108.40316701 C85.91765787 120.92283655 73.45412859 133.45670471 61 146 C55.15392235 141.15565972 49.81891579 135.92382055 44.48803711 130.5222168 C43.06405866 129.08613491 41.64007629 127.65005691 40.21594536 126.21412623 C38.69791861 124.68273444 37.18109022 123.15016355 35.66447258 121.61737633 C32.49533565 118.41543343 29.3200814 115.21960435 26.14344788 112.02510071 C25.05297371 110.92836669 23.96249959 109.83163265 22.87202549 108.73489857 C22.32632031 108.18607726 21.78061512 107.63725595 21.21837342 107.07180369 C13.83229718 99.64280145 6.45087745 92.20926188 -0.91625977 84.76147461 C-5.89919142 79.72408904 -10.89094183 74.69562842 -15.89299768 69.67723018 C-18.53570899 67.02514949 -21.17364001 64.36867281 -23.8007679 61.70114708 C-26.72623539 58.73081268 -29.6708397 55.78019056 -32.61743164 52.83081055 C-33.48253357 51.94616119 -34.3476355 51.06151184 -35.23895264 50.15005493 C-36.04484329 49.34959244 -36.85073395 48.54912994 -37.68104553 47.72441101 C-38.37436006 47.0251887 -39.06767458 46.3259664 -39.78199863 45.60555553 C-42.49966886 43.63830225 -44.6963894 43.32336408 -48 43 C-48.16109253 43.88812378 -48.16109253 43.88812378 -48.32543945 44.79418945 C-49.57574908 51.3873733 -51.30090215 57.75198271 -53.1875 64.1875 C-65.71792341 108.03238278 -70.58020622 151.40274957 -74 197 C-101.06 197 -128.12 197 -156 197 C-156 179.38110879 -156 179.38110879 -154.4375 170.5625 C-154.26186523 169.55098877 -154.08623047 168.53947754 -153.90527344 167.49731445 C-146.69456651 128.26561529 -128.64422089 93.24833183 -103 63 C-102.22914062 62.08476563 -101.45828125 61.16953125 -100.6640625 60.2265625 C-90.72600882 48.81073133 -79.27306041 38.82114934 -67 30 C-66.45359863 29.60248535 -65.90719727 29.2049707 -65.34423828 28.79541016 C-17.25109589 -5.85563619 -17.25109589 -5.85563619 0 0 Z " fill="#1A1A1A" transform="translate(173,28)"/>
<path d="M0 0 C27.39 0 54.78 0 83 0 C78.67477154 51.90274156 62.69107044 96.89476966 28 136 C27.50709473 136.55606934 27.01418945 137.11213867 26.50634766 137.68505859 C11.176235 154.86918294 -6.31300042 168.16984176 -26 180 C-26.93457031 180.60714844 -27.86914062 181.21429688 -28.83203125 181.83984375 C-29.54746094 182.22269531 -30.26289063 182.60554687 -31 183 C-31.66 182.67 -32.32 182.34 -33 182 C-32.55515259 180.66714966 -32.55515259 180.66714966 -32.10131836 179.30737305 C-26.95669507 163.82770239 -21.88086164 148.36572293 -17.8125 132.5625 C-17.52173584 131.43352295 -17.23097168 130.3045459 -16.93139648 129.14135742 C-15.48995414 123.63460633 -15.48995414 123.63460633 -15 118 C-16.03890381 118.16604736 -17.07780762 118.33209473 -18.14819336 118.50317383 C-36.36248426 121.39788101 -54.55763203 124.20827212 -72.9375 125.8125 C-74.21165771 125.92376221 -75.48581543 126.03502441 -76.79858398 126.1496582 C-80.53100231 126.45733284 -84.26436505 126.73440466 -88 127 C-89.23194092 127.0942627 -90.46388184 127.18852539 -91.7331543 127.28564453 C-105.45509888 128.23093593 -119.18782226 128.24355439 -132.9375 128.25 C-134.88610931 128.25101212 -134.88610931 128.25101212 -136.87408447 128.25204468 C-170.74691951 128.22426687 -203.84811777 125.71871552 -237.34130859 120.78660583 C-242.87957065 119.98462249 -248.42024442 119.41375781 -254 119 C-249.53188886 140.37212669 -243.39349062 161.14008478 -237 182 C-253.11676744 175.75185133 -267.91246408 163.6973771 -280.20166016 151.74707031 C-281.46604571 150.51873159 -282.73718383 149.29732417 -284.01318359 148.08105469 C-294.44934691 138.12242563 -303.66677282 127.77886942 -312 116 C-312.60859863 115.14317627 -312.60859863 115.14317627 -313.22949219 114.26904297 C-324.89171013 97.6966809 -333.38770267 79.10007957 -340 60 C-340.22284668 59.36803711 -340.44569336 58.73607422 -340.67529297 58.08496094 C-347.14589384 39.53368644 -350 20.61823749 -350 1 C-322.94 1 -295.88 1 -268 1 C-267.67 11.23 -267.34 21.46 -267 32 C-266.43464844 39.20762058 -265.82548222 46.37828213 -265.0625 53.5625 C-264.89038842 55.27790597 -264.71916852 56.99340162 -264.54882812 58.70898438 C-263.68669713 67.25176986 -262.68028179 75.74396094 -261.36499023 84.23022461 C-261 87 -261 87 -261 91 C-259.87078125 90.96261719 -258.7415625 90.92523438 -257.578125 90.88671875 C-252.80036149 90.88985926 -248.40234552 91.8034317 -243.75 92.8125 C-231.5332152 95.31859301 -219.21013362 96.51154997 -206.8046875 97.67456055 C-204 98 -204 98 -201.53027344 98.50488281 C-161.69580602 106.29958562 -115.15762582 102.71251788 -75 99 C-73.6713151 98.88533222 -72.3425347 98.77176678 -71.01367188 98.65917969 C-56.21967066 97.40216948 -41.56998233 95.92385215 -27 93 C-20.60918303 91.82217025 -14.51038089 90.7040736 -8 91 C-7.94448975 90.33645508 -7.88897949 89.67291016 -7.83178711 88.98925781 C-7.24360832 82.21600215 -6.46562527 75.4878653 -5.5625 68.75 C-5.36454834 67.24675171 -5.36454834 67.24675171 -5.16259766 65.71313477 C-4.58839676 61.36256631 -4.00583051 57.01348656 -3.39453125 52.66796875 C-0.9487991 35.10650859 -0.6362416 17.81476483 0 0 Z " fill="#1A191B" transform="translate(367,243)"/>
</svg>
