<?xml version="1.0" encoding="UTF-8"?>
<svg id="Layer_1" xmlns="http://www.w3.org/2000/svg" version="1.1" xmlns:xlink="http://www.w3.org/1999/xlink" viewBox="0 0 224 224">
  <!-- Generator: Adobe Illustrator 29.8.1, SVG Export Plug-In . SVG Version: 2.1.1 Build 2)  -->
  <defs>
    <style>
      .st0 {
        fill: #fff;
        stroke: #fff;
        stroke-miterlimit: 10;
      }

      .st1 {
        fill: url(#linear-gradient);
      }
    </style>
    <linearGradient id="linear-gradient" x1="111.6" y1="-.7" x2="111.6" y2="224.4" gradientUnits="userSpaceOnUse">
      <stop offset="0" stop-color="#c2a9ff"/>
      <stop offset="0" stop-color="#aa84f9"/>
      <stop offset=".2" stop-color="#915cf2"/>
      <stop offset=".3" stop-color="#8143ee"/>
      <stop offset=".3" stop-color="#7c3aed"/>
      <stop offset="1" stop-color="#250535"/>
    </linearGradient>
  </defs>
  <path class="st1" d="M180.7,22.3c24,18.9,38.8,44.4,43.3,74.7,2,35.3-5.5,65.3-29.3,92-18,19.7-44.3,33.4-71.1,35.2-3.7.1-7.4.2-11.2.2q-1,0-2,0c-11,0-21-1-31.4-4.4-.7-.2-1.4-.4-2.1-.6-14.2-4.6-26.6-11.5-37.9-21.4-.8-.7-1.6-1.3-2.4-2-16.7-14.2-27.4-33.2-33.6-54-.3-1.1-.7-2.2-1-3.4C-5.1,110.8,0,79.9,14.1,55.2,29.9,28.9,53.6,11.7,82.6,2.8c34.2-8.4,70-2,98.1,19.5Z"/>
  <path class="st0" d="M84,14c2.3,1.9,4.3,3.9,6.4,6q.9.9,1.8,1.8c1.9,1.9,3.8,3.8,5.6,5.7,1.3,1.3,2.6,2.6,3.8,3.9,3.1,3.2,6.2,6.4,9.4,9.5,4.2-1.6,6.9-4.7,9.9-7.9,1.1-1.2,2.3-2.4,3.4-3.5,1.8-1.9,3.6-3.7,5.4-5.6,1.7-1.8,3.5-3.6,5.2-5.4q.8-.9,1.6-1.7t4.5-3.8c5.5,0,10.2,2.7,15.1,5,.8.4,1.7.8,2.5,1.2,7.2,3.5,13.2,7.6,19.3,12.8.7.5,1.4,1.1,2.1,1.6,19.4,15.5,31.1,40.5,34.5,64.6q.4,3.8.4,8.8h-40c-.3-6.3-.7-12.5-1-19-.5-4.4-1-8.6-1.8-12.9q-.3-1.6-.5-3.3c-1.5-9.3-3.7-18.4-6.2-27.6-1-3.7-1.8-7.5-2.6-11.2-6.4,5.4-12.3,11.2-18.2,17.1-1,1-1.9,1.9-2.9,2.9-2.5,2.5-5,5-7.4,7.5-2.5,2.5-5.1,5.1-7.6,7.6-5,5-9.9,10-14.9,14.9-6-5-11.5-10.4-17-16-.9-1-1.9-1.9-2.8-2.9-4-4-8-8.1-12-12.1-2.5-2.5-4.9-5-7.4-7.4-1.4-1.4-2.8-2.8-4.2-4.2-.8-.8-1.7-1.7-2.5-2.6-.7-.7-1.5-1.5-2.2-2.3q-1.7-1.8-3.8-1.6c-7,24.2-11,47.9-13,73H8c0-26.8,12.3-50.6,30.4-69.8,9.3-8.8,31.8-27.7,45.6-23.2Z"/>
  <path class="st0" d="M8,116h39q1.4,18.1,1.9,23.8c.1,1.5.2,3,.4,4.5,0,.8.1,1.5.2,2.3.3,4.2.8,8.2,1.6,12.4,3.2.5,6.3.9,9.5,1.4q1.3.2,2.6.4c3,.4,5.9.8,8.9,1.2,1.2.2,2.4.4,3.7.5,10,1.4,19.9,1.8,30,1.7.8,0,1.6,0,2.4,0q27,0,53.6-3.8c3.5-.6,6.8-.5,10.3-.4,1.5-14.7,2.4-29.3,3-44h40c0,27.9-13.1,53.1-32.5,72.6-6.7,6.3-14.3,11.2-22.5,15.4,1.5-7.2,3.5-14.1,5.6-21.1.3-1.1.6-2.1,1-3.2.8-2.6,1.6-5.2,2.4-7.7q-.8.2-1.7.4c-2.6.5-5.1,1.1-7.7,1.6q-1.3.3-2.6.6l-2.6.5c-.8.2-1.6.3-2.4.5-8.4,1.4-16.8,1.7-25.4,1.7-1.2,0-2.3,0-3.6,0-2.5,0-5,0-7.4,0-3.7,0-7.4,0-11.1,0-14.7,0-28.8-.8-43.3-3q-2.5-.4-6.2-.3c1.1,7.5,3,14.5,5.3,21.7q1.7,5.1,1.7,7.3c-20.7-7.8-36.1-28.3-45.2-47.6-6-13.5-8.8-24.4-8.8-39.4Z"/>
</svg>