<?xml version="1.0" encoding="UTF-8"?>
<svg id="Layer_1" data-name="Layer 1" xmlns="http://www.w3.org/2000/svg" xmlns:xlink="http://www.w3.org/1999/xlink" viewBox="0 0 224 224">
  <defs>
    <style>
      .cls-1 {
        fill: #fff;
        stroke: #fff;
        stroke-miterlimit: 10;
      }

      .cls-2 {
        fill: url(#linear-gradient);
      }
    </style>
    <linearGradient id="linear-gradient" x1="111.56" y1="-.74" x2="111.56" y2="224.38" gradientUnits="userSpaceOnUse">
      <stop offset="0" stop-color="#c2a9ff"/>
      <stop offset=".08" stop-color="#aa84f9"/>
      <stop offset=".19" stop-color="#915cf2"/>
      <stop offset=".27" stop-color="#8143ee"/>
      <stop offset=".32" stop-color="#7c3aed"/>
      <stop offset="1" stop-color="#250535"/>
    </linearGradient>
  </defs>
  <path class="cls-2" d="M180.71,22.31c24.04,18.9,38.81,44.43,43.29,74.69,1.99,35.28-5.49,65.28-29.26,92.04-17.97,19.68-44.34,33.43-71.14,35.18-3.72.12-7.43.16-11.16.15q-.99,0-2,0c-10.98-.04-21-.99-31.44-4.37-.68-.21-1.36-.43-2.07-.65-14.23-4.58-26.62-11.54-37.93-21.35-.81-.66-1.62-1.33-2.45-2.01-16.67-14.16-27.43-33.2-33.55-53.99-.34-1.11-.68-2.21-1.03-3.35C-5.08,110.8.01,79.89,14.13,55.15,29.94,28.9,53.56,11.69,82.64,2.82c34.21-8.4,70.03-1.98,98.07,19.49Z"/>
  <path class="cls-1" d="M84,14c2.28,1.94,4.32,3.86,6.39,6q.89.9,1.79,1.81c1.88,1.91,3.75,3.83,5.62,5.75,1.28,1.3,2.56,2.59,3.83,3.89,3.13,3.17,6.24,6.36,9.35,9.55,4.19-1.62,6.86-4.72,9.87-7.92,1.14-1.18,2.29-2.37,3.43-3.55,1.79-1.86,3.58-3.73,5.36-5.61,1.72-1.82,3.46-3.61,5.21-5.4q.79-.85,1.59-1.72,1.54-1.56,4.54-3.8c5.51.08,10.23,2.66,15.12,5,.84.4,1.68.8,2.55,1.21,7.16,3.51,13.22,7.64,19.33,12.79.7.54,1.4,1.08,2.12,1.63,19.36,15.51,31.08,40.47,34.47,64.58q.41,3.79.41,8.79h-40c-.33-6.27-.66-12.54-1-19-.51-4.35-1.05-8.62-1.75-12.94q-.26-1.64-.52-3.3c-1.53-9.33-3.69-18.44-6.16-27.56-.96-3.71-1.76-7.45-2.57-11.2-6.38,5.39-12.3,11.17-18.19,17.09-.95.95-1.91,1.91-2.86,2.86-2.48,2.49-4.96,4.97-7.44,7.46-2.54,2.55-5.08,5.1-7.62,7.64-4.97,4.98-9.93,9.96-14.89,14.94-6.04-4.99-11.52-10.42-17.02-15.99-.95-.96-1.9-1.91-2.85-2.87-4-4.03-8-8.06-11.99-12.1-2.45-2.48-4.91-4.96-7.38-7.43-1.39-1.4-2.77-2.8-4.16-4.21-.84-.84-1.68-1.68-2.54-2.55-.74-.75-1.48-1.49-2.24-2.26q-1.67-1.81-3.83-1.59c-7.04,24.2-11.01,47.9-13,73H8c0-26.77,12.27-50.58,30.44-69.81,9.34-8.81,31.78-27.73,45.56-23.19Z"/>
  <path class="cls-1" d="M8,116h39q1.44,18.12,1.88,23.81c.12,1.5.24,3,.36,4.51.06.77.12,1.54.18,2.33.34,4.16.82,8.24,1.57,12.35,3.17.46,6.33.92,9.5,1.38q1.3.19,2.63.38c2.96.43,5.91.83,8.87,1.24,1.21.18,2.42.36,3.67.54,10.05,1.39,19.88,1.78,30.02,1.71.79,0,1.59,0,2.4,0q26.98-.04,53.6-3.84c3.48-.61,6.78-.54,10.31-.41,1.47-14.67,2.43-29.27,3-44h40c0,27.88-13.11,53.08-32.52,72.6-6.66,6.32-14.34,11.23-22.48,15.4,1.48-7.16,3.46-14.08,5.62-21.06.32-1.06.65-2.11.98-3.2.79-2.58,1.59-5.16,2.39-7.74q-.83.17-1.68.35c-2.56.53-5.13,1.06-7.7,1.59q-1.31.27-2.64.55l-2.64.54c-.79.16-1.57.32-2.38.49-8.44,1.37-16.82,1.65-25.35,1.68-1.17,0-2.34.01-3.55.02-2.48,0-4.95.02-7.43.02-3.7,0-7.41.04-11.11.07-14.66.06-28.84-.8-43.33-3.04q-2.49-.35-6.2-.27c1.06,7.49,2.97,14.52,5.32,21.69q1.68,5.13,1.68,7.31c-20.73-7.78-36.11-28.34-45.25-47.62-5.99-13.54-8.75-24.43-8.75-39.38Z"/>
</svg>